<svg xmlns="http://www.w3.org/2000/svg" viewBox="0 0 1300 650"><defs><style>.cls-1{fill:#327e3c;}.cls-2{fill:#fff;}.cls-3,.cls-5{fill:#2a7133;}.cls-4{fill:none;stroke:#fff;stroke-width:4px;}.cls-4,.cls-5{stroke-miterlimit:10;}.cls-5{stroke:#134718;stroke-width:8px;}</style></defs><title>Soccer field</title><g id="Campo"><rect class="cls-1" x="1" y="1" width="1298" height="648"/><path class="cls-2" d="M1298,2V648H2V2H1298m2-2H0V650H1300V0Z"/></g><g id="Linhas_-_Campo" data-name="Linhas - Campo"><rect class="cls-3" x="2" y="2" width="78" height="646"/><rect class="cls-3" x="163" y="2" width="81" height="646"/><rect class="cls-3" x="325" y="2" width="81" height="646"/><rect class="cls-3" x="487" y="2" width="81" height="646"/><rect class="cls-3" x="650" y="2" width="81" height="646"/><rect class="cls-3" x="813" y="2" width="81" height="646"/><rect class="cls-3" x="975" y="2" width="81" height="646"/><rect class="cls-3" x="1138" y="2" width="81" height="646"/></g><g id="Linhas_-_Demarcação" data-name="Linhas - Demarcação"><polyline class="cls-4" points="2 236 2 2 1298 2 1298 236"/><polyline class="cls-4" points="2 414 2 648 1298 648 1298 414"/><line class="cls-4" x1="649" y1="2" x2="649" y2="648"/><circle class="cls-4" cx="649" cy="325" r="67"/><circle class="cls-2" cx="649" cy="325" r="5"/><path class="cls-2" d="M649,322a3,3,0,1,1-3,3,3,3,0,0,1,3-3m0-4a7,7,0,1,0,7,7,7,7,0,0,0-7-7Z"/><path class="cls-4" d="M1297,94s-53-3-96,38c-39,38-42.93,90.26-42.93,90.26L1157,236V418a124.81,124.81,0,0,0,1.14,13.31c3.19,17.55,14.16,62.54,45.86,88.69,23,22,52,33,93,36.67"/><path class="cls-4" d="M3,555.62s53,3,96-38c39-38,42.93-90.27,42.93-90.27L143,413.62v-182a124.61,124.61,0,0,0-1.14-13.31c-3.19-17.55-14.16-62.54-45.86-88.69-23-22-52-33-93-36.67"/></g><g id="Demarcação_GOL" data-name="Demarcação GOL"><line class="cls-5 team-home" y1="236" y2="414"/><line class="cls-5 team-away" x1="1300" y1="236" x2="1300" y2="414"/></g></svg>